<?xml version="1.0" encoding="utf-8"?>
<!-- Generator: Adobe Illustrator 19.2.1, SVG Export Plug-In . SVG Version: 6.00 Build 0)  -->
<svg version="1.1" id="NC" xmlns="http://www.w3.org/2000/svg" xmlns:xlink="http://www.w3.org/1999/xlink" x="0px" y="0px"
	 viewBox="0 0 788.031 227.14" enable-background="new 0 0 788.031 227.14" xml:space="preserve">
<g>
	<path fill="#FFFFFF" d="M761.233,89.687c-0.253-8.808-3.511-15.763-9.756-20.875c-6.254-5.108-14.818-7.663-25.699-7.663
		c-5.743,0-11.021,0.76-15.843,2.281c-4.822,1.526-8.972,3.833-12.449,6.933c-3.482,3.098-6.282,7.068-8.407,11.904
		c-2.125,4.838-3.357,10.573-3.706,17.204c-0.349,6.633,0.249,12.451,1.793,17.451c1.548,5.002,3.921,9.16,7.125,12.476
		c3.199,3.318,7.038,5.818,11.511,7.502c4.473,1.683,9.519,2.527,15.142,2.527c4.901,0,9.544-0.681,13.922-2.038
		c4.374-1.359,8.303-3.315,11.789-5.874c3.481-2.552,6.361-5.598,8.644-9.131c2.274-3.531,3.826-7.474,4.656-11.822h-21.707
		c-0.693,4.023-2.585,7.094-5.685,9.214c-3.104,2.12-6.747,3.179-10.934,3.179c-4.187,0-7.789-1.957-10.814-5.872
		c-3.021-3.913-4.32-9.947-3.888-18.103c0.212-4.021,0.838-7.42,1.88-10.192c1.042-2.774,2.353-5,3.938-6.687
		c1.585-1.685,3.411-2.879,5.482-3.588c2.071-0.705,4.241-1.058,6.515-1.058c4.062,0,7.449,1.088,10.142,3.262
		c2.697,2.175,4.241,5.163,4.644,8.968H761.233L761.233,89.687z M683.839,41.843c0-7.745-6.278-14.028-14.03-14.028
		c-7.747,0-14.026,6.282-14.026,14.028c0,7.75,6.278,14.029,14.026,14.029C677.56,55.872,683.839,49.593,683.839,41.843
		L683.839,41.843z M683.839,41.843c0-7.745-6.278-14.028-14.03-14.028c-7.747,0-14.026,6.282-14.026,14.028
		c0,7.75,6.278,14.029,14.026,14.029C677.56,55.872,683.839,49.593,683.839,41.843L683.839,41.843z M657.327,63.105l-3.909,74.364
		h21.528l3.909-74.364H657.327L657.327,63.105z M649.55,81.37l1.054-20.06h-2.867c-2.154,0-4.311,0.083-6.469,0.247
		c-2.166,0.162-4.282,0.624-6.353,1.385c-2.079,0.763-4.108,1.851-6.092,3.262c-1.988,1.415-3.946,3.372-5.872,5.87l0.473-8.967
		h-20.271l-3.913,74.364h21.528l2.033-38.65c0.627-11.957,7.581-17.941,20.856-17.941C645.567,80.879,647.534,81.043,649.55,81.37
		L649.55,81.37z M592.746,63.105h-44.845l1.262-14.037h-21.524l-3.718,60.678c-0.212,4.025,0.216,7.828,1.282,11.416
		c1.067,3.59,2.876,6.743,5.424,9.459c2.548,2.72,5.867,4.892,9.971,6.525c4.1,1.629,9.138,2.444,15.121,2.444
		c5.739,0,10.744-0.815,15.018-2.444c4.27-1.633,7.822-3.805,10.656-6.525c2.834-2.716,4.971-5.87,6.419-9.459
		c1.444-3.587,2.266-7.339,2.473-11.252l1.124-21.364h-20.092l-1.021,19.408c-0.245,4.677-1.44,8.262-3.594,10.764
		c-2.149,2.502-5.361,3.749-9.64,3.749c-4.39,0-7.469-1.274-9.237-3.83c-1.768-2.554-2.523-6.171-2.278-10.847l1.614-30.66h44.849
		L592.746,63.105L592.746,63.105z M514.587,85.936c0.212-4.019-0.29-7.583-1.494-10.682c-1.212-3.098-2.954-5.679-5.224-7.746
		c-2.278-2.062-5.025-3.641-8.245-4.729c-3.224-1.085-6.797-1.629-10.735-1.629c-6.552,0-12.005,1.115-16.354,3.341
		c-4.353,2.23-7.884,5.411-10.602,9.542l0.573-10.927h-20.628l-3.909,74.364h21.524l2.241-42.563
		c0.597-11.417,6.519-17.125,17.76-17.125c5.141,0,8.71,1.007,10.698,3.018c1.984,2.014,2.826,5.9,2.527,11.662l-2.37,45.009h21.529
		L514.587,85.936L514.587,85.936z M431.217,105.505c1.552-29.569-10.465-44.356-36.056-44.356c-12.679,0-22.606,3.422-29.785,10.274
		c-7.177,6.847-11.067,16.035-11.673,27.559c-1.419,26.966,11.507,40.446,38.774,40.446c8.73,0,16.374-2.064,22.93-6.195
		c6.556-4.133,11.291-10.003,14.204-17.615h-22.246c-0.971,2.45-2.867,4.426-5.693,5.915c-2.83,1.494-5.98,2.239-9.447,2.239
		c-5.382,0-9.599-1.668-12.654-5.009c-3.053-3.342-4.614-7.76-4.685-13.258H431.217L431.217,105.505z M409.622,93.114h-33.366
		c0.75-5.22,2.755-9.241,6.017-12.071c3.257-2.826,7.098-4.239,11.523-4.239c4.306,0,8.033,1.332,11.182,3.995
		C408.125,83.465,409.672,87.568,409.622,93.114L409.622,93.114z M327.285,89.687h21.707c-0.255-8.808-3.507-15.763-9.756-20.875
		c-6.254-5.108-14.819-7.663-25.7-7.663c-5.741,0-11.022,0.76-15.843,2.281c-4.823,1.526-8.972,3.833-12.45,6.933
		c-3.478,3.098-6.281,7.068-8.405,11.904c-2.122,4.838-3.359,10.573-3.708,17.204c-0.349,6.633,0.249,12.451,1.798,17.451
		c1.545,5.002,3.917,9.16,7.122,12.476c3.199,3.318,7.037,5.818,11.513,7.502c4.47,1.683,9.516,2.527,15.14,2.527
		c4.904,0,9.543-0.681,13.92-2.038c4.377-1.359,8.306-3.315,11.79-5.874c3.482-2.552,6.363-5.598,8.643-9.131
		c2.277-3.531,3.83-7.474,4.657-11.822h-21.705c-0.691,4.023-2.588,7.094-5.688,9.214c-3.102,2.12-6.745,3.179-10.931,3.179
		c-4.187,0-7.791-1.957-10.814-5.872c-3.023-3.913-4.32-9.947-3.89-18.103c0.211-4.021,0.837-7.42,1.881-10.192
		c1.043-2.774,2.354-5,3.939-6.687c1.582-1.685,3.41-2.879,5.481-3.588c2.07-0.705,4.241-1.058,6.515-1.058
		c4.064,0,7.447,1.088,10.143,3.262C325.336,82.894,326.885,85.882,327.285,89.687L327.285,89.687z M266.072,63.105h-44.846
		l1.264-14.037h-21.526l-3.718,60.678c-0.213,4.025,0.217,7.828,1.283,11.416c1.067,3.59,2.875,6.743,5.422,9.459
		c2.55,2.72,5.871,4.892,9.973,6.525c4.099,1.629,9.139,2.444,15.119,2.444c5.741,0,10.747-0.815,15.019-2.444
		c4.271-1.633,7.825-3.805,10.659-6.525c2.832-2.716,4.971-5.87,6.416-9.459c1.445-3.587,2.269-7.339,2.475-11.252l1.124-21.364
		h-20.091l-1.02,19.408c-0.247,4.677-1.445,8.262-3.594,10.764c-2.149,2.502-5.364,3.749-9.639,3.749
		c-4.395,0-7.472-1.274-9.238-3.83c-1.768-2.554-2.524-6.171-2.278-10.847l1.613-30.66h44.846L266.072,63.105L266.072,63.105z
		 M189.037,105.505c1.553-29.569-10.467-44.356-36.058-44.356c-12.678,0-22.604,3.422-29.781,10.274
		c-7.177,6.847-11.069,16.035-11.675,27.559c-1.419,26.966,11.507,40.446,38.774,40.446c8.73,0,16.372-2.064,22.931-6.195
		c6.554-4.133,11.288-10.003,14.201-17.615h-22.245c-0.968,2.45-2.865,4.426-5.693,5.915c-2.83,1.494-5.979,2.239-9.447,2.239
		c-5.381,0-9.599-1.668-12.651-5.009c-3.056-3.342-4.616-7.76-4.685-13.258H189.037L189.037,105.505z M167.443,93.114h-33.366
		c0.752-5.22,2.755-9.241,6.016-12.071c3.257-2.826,7.099-4.239,11.525-4.239c4.306,0,8.031,1.332,11.182,3.995
		C165.948,83.465,167.495,87.568,167.443,93.114L167.443,93.114z M103.418,85.936c0.213-4.019-0.287-7.583-1.496-10.682
		c-1.207-3.098-2.948-5.679-5.222-7.746c-2.275-2.062-5.022-3.641-8.245-4.729c-3.223-1.085-6.799-1.629-10.732-1.629
		c-6.557,0-12.008,1.115-16.357,3.341c-4.349,2.23-7.882,5.411-10.602,9.542l0.576-10.927h-20.63l-3.911,74.364h21.528l2.238-42.563
		c0.602-11.417,6.52-17.125,17.764-17.125c5.141,0,8.707,1.007,10.696,3.018c1.984,2.014,2.828,5.9,2.526,11.662l-2.367,45.009
		h21.527L103.418,85.936L103.418,85.936z"/>
</g>
<g>
	<path fill="#FFFFFF" d="M221.89,191.641l-3.285-7.946h-16.515l-3.285,7.946h-1.643l12.342-29.61h1.687l12.341,29.61H221.89z
		 M210.348,163.674l-7.724,18.689h15.449L210.348,163.674z"/>
	<path fill="#FFFFFF" d="M236.581,176.858c0-9.145,6.881-15.315,15.804-15.315c6.481,0,10.255,3.507,12.342,7.236l-5.416,2.664
		c-1.243-2.398-3.906-4.306-6.925-4.306c-5.416,0-9.322,4.128-9.322,9.722c0,5.594,3.907,9.722,9.322,9.722
		c3.019,0,5.682-1.909,6.925-4.306l5.416,2.619c-2.086,3.685-5.86,7.281-12.342,7.281
		C243.462,192.174,236.581,185.959,236.581,176.858z"/>
	<path fill="#FFFFFF" d="M266.545,180.898c0-6.082,4.262-11.232,11.32-11.232c7.103,0,11.365,5.149,11.365,11.232
		c0,6.081-4.262,11.276-11.365,11.276C270.806,192.174,266.545,186.98,266.545,180.898z M283.37,180.898
		c0-3.33-1.953-6.215-5.505-6.215c-3.507,0-5.461,2.885-5.461,6.215c0,3.374,1.953,6.26,5.461,6.26
		C281.416,187.158,283.37,184.272,283.37,180.898z"/>
	<path fill="#FFFFFF" d="M292.558,197.146l2.531-4.04c1.731,1.865,4.04,2.619,6.703,2.619c2.708,0,5.949-1.154,5.949-5.505v-2.087
		c-1.687,2.131-3.996,3.33-6.659,3.33c-5.327,0-9.456-3.729-9.456-10.877c0-7.014,4.04-10.92,9.456-10.92
		c2.575,0,4.928,1.066,6.659,3.285V170.2h5.638v20.021c0,8.124-6.304,10.121-11.587,10.121
		C298.151,200.342,295.266,199.499,292.558,197.146z M307.741,184.05v-6.969c-0.977-1.376-3.019-2.398-4.839-2.398
		c-3.241,0-5.461,2.22-5.461,5.904c0,3.685,2.22,5.905,5.461,5.905C304.721,186.492,306.764,185.426,307.741,184.05z"/>
	<path fill="#FFFFFF" d="M332.998,191.641v-12.963c0-2.974-1.554-3.996-3.951-3.996c-2.219,0-3.906,1.243-4.883,2.486v14.472h-5.638
		V170.2h5.638v2.752c1.376-1.599,4.04-3.285,7.502-3.285c4.751,0,7.014,2.664,7.014,6.837v15.138H332.998z"/>
	<path fill="#FFFFFF" d="M343.253,164.517c0-1.865,1.509-3.33,3.329-3.33c1.864,0,3.373,1.465,3.373,3.33
		c0,1.864-1.509,3.374-3.373,3.374C344.762,167.891,343.253,166.381,343.253,164.517z M343.785,191.641V170.2h5.638v21.442H343.785z
		"/>
	<path fill="#FFFFFF" d="M353.639,191.641v-4.217l9.678-12.297h-9.678V170.2h17.358v4.04l-9.855,12.474h10.033v4.928H353.639z"/>
	<path fill="#FFFFFF" d="M388.264,191.641v-2.264c-1.465,1.775-3.996,2.797-6.792,2.797c-3.418,0-7.413-2.308-7.413-7.103
		c0-5.061,3.996-6.925,7.413-6.925c2.885,0,5.372,0.932,6.792,2.619v-2.708c0-2.175-1.864-3.596-4.705-3.596
		c-2.264,0-4.395,0.888-6.171,2.53l-2.219-3.951c2.619-2.353,5.993-3.374,9.366-3.374c4.928,0,9.412,1.953,9.412,8.124v13.851
		H388.264z M388.264,186.492v-2.664c-0.933-1.243-2.708-1.909-4.528-1.909c-2.22,0-4.04,1.199-4.04,3.241s1.82,3.196,4.04,3.196
		C385.556,188.356,387.331,187.734,388.264,186.492z"/>
	<path fill="#FFFFFF" d="M413.523,191.641v-12.963c0-2.974-1.554-3.996-3.952-3.996c-2.219,0-3.906,1.243-4.883,2.486v14.472h-5.638
		V170.2h5.638v2.752c1.376-1.599,4.04-3.285,7.503-3.285c4.751,0,7.014,2.664,7.014,6.837v15.138H413.523z"/>
	<path fill="#FFFFFF" d="M425.464,186.269v-11.142h-3.552V170.2h3.552v-5.86h5.638v5.86h4.35v4.928h-4.35v9.633
		c0,1.376,0.71,2.398,1.953,2.398c0.844,0,1.642-0.311,1.954-0.666l1.198,4.306c-0.843,0.755-2.352,1.376-4.705,1.376
		C427.55,192.174,425.464,190.132,425.464,186.269z"/>
	<path fill="#FFFFFF" d="M449.967,191.641v-29.61h11.675c9.279,0,15.715,5.905,15.715,14.783c0,8.968-6.436,14.827-15.671,14.827
		H449.967z M470.92,176.814c0-5.194-3.196-9.234-9.234-9.234h-5.415v18.512h5.371C467.501,186.092,470.92,181.875,470.92,176.814z"
		/>
	<path fill="#FFFFFF" d="M480.73,164.517c0-1.865,1.509-3.33,3.329-3.33c1.864,0,3.373,1.465,3.373,3.33
		c0,1.864-1.509,3.374-3.373,3.374C482.24,167.891,480.73,166.381,480.73,164.517z M481.263,191.641V170.2h5.638v21.442H481.263z"/>
	<path fill="#FFFFFF" d="M491.605,197.146l2.53-4.04c1.732,1.865,4.04,2.619,6.704,2.619c2.708,0,5.948-1.154,5.948-5.505v-2.087
		c-1.687,2.131-3.994,3.33-6.658,3.33c-5.327,0-9.456-3.729-9.456-10.877c0-7.014,4.04-10.92,9.456-10.92
		c2.574,0,4.927,1.066,6.658,3.285V170.2h5.638v20.021c0,8.124-6.303,10.121-11.586,10.121
		C497.198,200.342,494.313,199.499,491.605,197.146z M506.786,184.05v-6.969c-0.976-1.376-3.019-2.398-4.838-2.398
		c-3.24,0-5.461,2.22-5.461,5.904c0,3.685,2.22,5.905,5.461,5.905C503.768,186.492,505.81,185.426,506.786,184.05z"/>
	<path fill="#FFFFFF" d="M517.041,164.517c0-1.865,1.509-3.33,3.329-3.33c1.864,0,3.373,1.465,3.373,3.33
		c0,1.864-1.509,3.374-3.373,3.374C518.55,167.891,517.041,166.381,517.041,164.517z M517.573,191.641V170.2h5.638v21.442H517.573z"
		/>
	<path fill="#FFFFFF" d="M529.514,186.269v-11.142h-3.552V170.2h3.552v-5.86h5.638v5.86h4.35v4.928h-4.35v9.633
		c0,1.376,0.71,2.398,1.953,2.398c0.844,0,1.642-0.311,1.953-0.666l1.199,4.306c-0.843,0.755-2.352,1.376-4.705,1.376
		C531.6,192.174,529.514,190.132,529.514,186.269z"/>
	<path fill="#FFFFFF" d="M555.794,191.641v-2.264c-1.465,1.775-3.996,2.797-6.792,2.797c-3.418,0-7.413-2.308-7.413-7.103
		c0-5.061,3.996-6.925,7.413-6.925c2.885,0,5.372,0.932,6.792,2.619v-2.708c0-2.175-1.864-3.596-4.705-3.596
		c-2.265,0-4.395,0.888-6.171,2.53l-2.219-3.951c2.619-2.353,5.993-3.374,9.366-3.374c4.928,0,9.412,1.953,9.412,8.124v13.851
		H555.794z M555.794,186.492v-2.664c-0.933-1.243-2.708-1.909-4.528-1.909c-2.22,0-4.04,1.199-4.04,3.241s1.82,3.196,4.04,3.196
		C553.086,188.356,554.862,187.734,555.794,186.492z"/>
	<path fill="#FFFFFF" d="M566.58,191.641v-29.61h5.638v29.61H566.58z"/>
	<path fill="#FFFFFF" d="M588.464,191.641v-29.61h15.582c5.638,0,8.523,3.596,8.523,7.547c0,3.685-2.309,6.215-5.106,6.792
		c3.197,0.488,5.682,3.552,5.682,7.236c0,4.484-2.93,8.035-8.612,8.035H588.464z M606.133,170.687c0-1.82-1.332-3.107-3.463-3.107
		h-7.901v6.215h7.901C604.801,173.795,606.133,172.597,606.133,170.687z M606.71,182.718c0-1.864-1.332-3.373-3.774-3.373h-8.167
		v6.747h8.167C605.289,186.092,606.71,184.849,606.71,182.718z"/>
	<path fill="#FFFFFF" d="M631.79,191.641v-2.708c-1.465,1.598-4.04,3.241-7.546,3.241c-4.705,0-6.925-2.575-6.925-6.748V170.2h5.638
		v13.007c0,2.974,1.554,3.951,3.951,3.951c2.175,0,3.906-1.199,4.883-2.442V170.2h5.638v21.442H631.79z"/>
	<path fill="#FFFFFF" d="M640.712,188.844l2.441-4.084c1.598,1.509,4.751,2.974,7.414,2.974c2.441,0,3.595-0.932,3.595-2.264
		c0-3.507-12.696-0.622-12.696-9.056c0-3.596,3.107-6.748,8.79-6.748c3.596,0,6.482,1.243,8.612,2.93l-2.263,3.996
		c-1.288-1.332-3.729-2.486-6.349-2.486c-2.042,0-3.373,0.888-3.373,2.087c0,3.152,12.741,0.488,12.741,9.145
		c0,3.951-3.373,6.837-9.323,6.837C646.572,192.174,642.976,190.931,640.712,188.844z"/>
	<path fill="#FFFFFF" d="M662.775,164.517c0-1.865,1.509-3.33,3.329-3.33c1.864,0,3.373,1.465,3.373,3.33
		c0,1.864-1.509,3.374-3.373,3.374C664.284,167.891,662.775,166.381,662.775,164.517z M663.307,191.641V170.2h5.638v21.442H663.307z
		"/>
	<path fill="#FFFFFF" d="M688.565,191.641v-12.963c0-2.974-1.554-3.996-3.951-3.996c-2.219,0-3.906,1.243-4.883,2.486v14.472h-5.638
		V170.2h5.638v2.752c1.376-1.599,4.04-3.285,7.502-3.285c4.751,0,7.014,2.664,7.014,6.837v15.138H688.565z"/>
	<path fill="#FFFFFF" d="M697.975,180.898c0-6.215,4.617-11.232,11.098-11.232c6.436,0,10.742,4.795,10.742,11.764v1.332h-15.937
		c0.399,2.619,2.531,4.794,6.17,4.794c1.821,0,4.307-0.755,5.682-2.087l2.531,3.729c-2.13,1.953-5.505,2.974-8.834,2.974
		C702.902,192.174,697.975,187.779,697.975,180.898z M709.074,174.284c-3.508,0-5.017,2.441-5.239,4.572h10.566
		C714.223,176.814,712.802,174.284,709.074,174.284z"/>
	<path fill="#FFFFFF" d="M721.592,188.844l2.441-4.084c1.599,1.509,4.751,2.974,7.414,2.974c2.441,0,3.595-0.932,3.595-2.264
		c0-3.507-12.696-0.622-12.696-9.056c0-3.596,3.107-6.748,8.79-6.748c3.596,0,6.482,1.243,8.612,2.93l-2.263,3.996
		c-1.288-1.332-3.729-2.486-6.349-2.486c-2.042,0-3.373,0.888-3.373,2.087c0,3.152,12.741,0.488,12.741,9.145
		c0,3.951-3.373,6.837-9.323,6.837C727.451,192.174,723.855,190.931,721.592,188.844z"/>
	<path fill="#FFFFFF" d="M742.322,188.844l2.441-4.084c1.598,1.509,4.751,2.974,7.414,2.974c2.441,0,3.595-0.932,3.595-2.264
		c0-3.507-12.696-0.622-12.696-9.056c0-3.596,3.107-6.748,8.79-6.748c3.596,0,6.482,1.243,8.612,2.93l-2.263,3.996
		c-1.287-1.332-3.729-2.486-6.349-2.486c-2.042,0-3.373,0.888-3.373,2.087c0,3.152,12.741,0.488,12.741,9.145
		c0,3.951-3.373,6.837-9.323,6.837C748.182,192.174,744.586,190.931,742.322,188.844z"/>
</g>
</svg>
